<svg xmlns="http://www.w3.org/2000/svg" xmlns:xlink="http://www.w3.org/1999/xlink" width="256" zoomAndPan="magnify" viewBox="0 0 192 191.999996" height="256" preserveAspectRatio="xMidYMid meet" version="1.0"><defs><filter x="0%" y="0%" width="100%" height="100%" id="28dbcd4be9"><feColorMatrix values="0 0 0 0 1 0 0 0 0 1 0 0 0 0 1 0 0 0 1 0" color-interpolation-filters="sRGB"/></filter><g/><mask id="efd847f6cc"><g filter="url(#28dbcd4be9)"><rect x="-19.2" width="230.4" fill="#000000" y="-19.2" height="230.399995" fill-opacity="0.65"/></g></mask><clipPath id="7b8bd23910"><path d="M 0.394531 0.183594 L 20.046875 0.183594 L 20.046875 13.390625 L 0.394531 13.390625 Z M 0.394531 0.183594 " clip-rule="nonzero"/></clipPath><clipPath id="5f59b742a0"><path d="M 19.578125 4.589844 C 19.863281 5.265625 20.046875 6.035156 20.046875 6.792969 C 20.046875 7.546875 19.890625 8.273438 19.605469 8.945312 C 19.597656 8.957031 19.597656 8.972656 19.585938 8.988281 C 18.453125 11.503906 15.453125 13.355469 11.960938 13.390625 L 0.4375 13.390625 L 0.4375 0.183594 L 11.953125 0.183594 C 15.472656 0.21875 18.46875 2.042969 19.578125 4.589844 Z M 19.578125 4.589844 " clip-rule="nonzero"/></clipPath><clipPath id="5c8d9c524c"><rect x="0" width="21" y="0" height="14"/></clipPath><mask id="bc17370b30"><g filter="url(#28dbcd4be9)"><rect x="-19.2" width="230.4" fill="#000000" y="-19.2" height="230.399995" fill-opacity="0.85"/></g></mask><clipPath id="f3705a6a14"><path d="M 0.394531 0.691406 L 20.046875 0.691406 L 20.046875 13.898438 L 0.394531 13.898438 Z M 0.394531 0.691406 " clip-rule="nonzero"/></clipPath><clipPath id="b9dd088f21"><path d="M 19.578125 5.097656 C 19.863281 5.769531 20.046875 6.542969 20.046875 7.296875 C 20.046875 8.054688 19.890625 8.78125 19.605469 9.449219 C 19.597656 9.464844 19.597656 9.480469 19.585938 9.492188 C 18.453125 12.007812 15.453125 13.863281 11.960938 13.898438 L 0.4375 13.898438 L 0.4375 0.691406 L 11.953125 0.691406 C 15.472656 0.726562 18.46875 2.550781 19.578125 5.097656 Z M 19.578125 5.097656 " clip-rule="nonzero"/></clipPath><clipPath id="31e6c4abef"><rect x="0" width="21" y="0" height="15"/></clipPath></defs><rect x="-19.2" width="230.4" fill="#ffffff" y="-19.2" height="230.399995" fill-opacity="1"/><rect x="-19.2" width="230.4" fill="#9d00ff" y="-19.2" height="230.399995" fill-opacity="1"/><g fill="#ffffff" fill-opacity="1"><g transform="translate(62.406214, 109.09408)"><g><path d="M 6.09375 -19.015625 L 0.671875 -19.015625 L 0.671875 -21.765625 L 6.09375 -21.765625 Z M 6.09375 0 L 0.671875 0 L 0.671875 -17.859375 L 6.09375 -17.859375 Z M 6.09375 0 "/></g></g></g><g fill="#ffffff" fill-opacity="1"><g transform="translate(69.172267, 109.09408)"><g><path d="M 6.09375 0 L 0.671875 0 L 0.671875 -21.765625 L 6.09375 -21.765625 Z M 6.09375 0 "/></g></g></g><g fill="#ffffff" fill-opacity="1"><g transform="translate(75.938321, 109.09408)"><g><path d="M 6.09375 0 L 0.671875 0 L 0.671875 -21.765625 L 6.09375 -21.765625 Z M 6.09375 0 "/></g></g></g><g fill="#ffffff" fill-opacity="1"><g transform="translate(82.704374, 109.09408)"><g><path d="M 6.09375 -16.3125 L 6.15625 -16.3125 C 6.625 -16.9375 7.144531 -17.425781 7.71875 -17.78125 C 8.300781 -18.144531 8.910156 -18.328125 9.546875 -18.328125 C 10.859375 -18.328125 11.832031 -17.832031 12.46875 -16.84375 C 13.113281 -15.851562 13.4375 -14.597656 13.4375 -13.078125 L 13.4375 -4.171875 C 13.4375 -2.847656 13.128906 -1.742188 12.515625 -0.859375 C 11.910156 0.015625 10.96875 0.453125 9.6875 0.453125 C 8.914062 0.453125 8.28125 0.304688 7.78125 0.015625 C 7.289062 -0.273438 6.707031 -0.769531 6.03125 -1.46875 L 5.796875 0 L 0.671875 0 L 0.671875 -21.765625 L 6.09375 -21.765625 Z M 6.09375 -13.328125 L 6.09375 -4.484375 C 6.09375 -3.929688 6.175781 -3.546875 6.34375 -3.328125 C 6.519531 -3.117188 6.785156 -3.015625 7.140625 -3.015625 C 7.398438 -3.015625 7.609375 -3.109375 7.765625 -3.296875 C 7.929688 -3.492188 8.015625 -3.695312 8.015625 -3.90625 L 8.015625 -13.40625 C 8.015625 -13.632812 7.9375 -13.867188 7.78125 -14.109375 C 7.632812 -14.359375 7.410156 -14.484375 7.109375 -14.484375 C 6.835938 -14.484375 6.597656 -14.378906 6.390625 -14.171875 C 6.191406 -13.972656 6.09375 -13.691406 6.09375 -13.328125 Z M 6.09375 -13.328125 "/></g></g></g><g fill="#ffffff" fill-opacity="1"><g transform="translate(96.815563, 109.09408)"><g><path d="M 9.484375 -18.328125 L 9.484375 -11.828125 C 9.078125 -11.867188 8.769531 -11.890625 8.5625 -11.890625 C 7.789062 -11.890625 7.210938 -11.660156 6.828125 -11.203125 C 6.441406 -10.742188 6.25 -10.210938 6.25 -9.609375 L 6.25 0 L 0.828125 0 L 0.828125 -17.859375 L 6.0625 -17.859375 L 6.0625 -15.578125 L 6.125 -15.578125 C 6.289062 -16.242188 6.707031 -16.851562 7.375 -17.40625 C 8.050781 -17.957031 8.753906 -18.265625 9.484375 -18.328125 Z M 9.484375 -18.328125 "/></g></g></g><g fill="#ffffff" fill-opacity="1"><g transform="translate(106.416042, 109.09408)"><g><path d="M 13.4375 -21.765625 L 13.4375 0 L 7.75 0 L 8.015625 -1.0625 L 7.953125 -1.0625 C 6.835938 -0.0507812 5.628906 0.453125 4.328125 0.453125 C 3.171875 0.453125 2.269531 0.109375 1.625 -0.578125 C 0.988281 -1.265625 0.671875 -2.25 0.671875 -3.53125 L 0.671875 -14.140625 C 0.671875 -16.929688 1.972656 -18.328125 4.578125 -18.328125 C 5.265625 -18.328125 5.90625 -18.175781 6.5 -17.875 C 7.101562 -17.582031 7.585938 -17.171875 7.953125 -16.640625 L 8.015625 -16.640625 L 8.015625 -21.765625 Z M 6.09375 -13.53125 L 6.09375 -4.328125 C 6.09375 -3.578125 6.390625 -3.203125 6.984375 -3.203125 C 7.347656 -3.203125 7.609375 -3.285156 7.765625 -3.453125 C 7.929688 -3.628906 8.015625 -3.910156 8.015625 -4.296875 L 8.015625 -13.5625 C 8.015625 -14.050781 7.929688 -14.382812 7.765625 -14.5625 C 7.609375 -14.75 7.367188 -14.84375 7.046875 -14.84375 C 6.710938 -14.84375 6.46875 -14.742188 6.3125 -14.546875 C 6.164062 -14.359375 6.09375 -14.019531 6.09375 -13.53125 Z M 6.09375 -13.53125 "/></g></g></g><g fill="#ffffff" fill-opacity="1"><g transform="translate(120.527232, 109.09408)"><g><path d="M 5.765625 0 L 1.5625 0 L 1.5625 -4.390625 L 5.765625 -4.390625 Z M 5.765625 0 "/></g></g></g><g fill="#ffffff" fill-opacity="1"><g transform="translate(127.84189, 109.09408)"><g><path d="M 6.09375 -19.015625 L 0.671875 -19.015625 L 0.671875 -21.765625 L 6.09375 -21.765625 Z M 6.09375 0 L 0.671875 0 L 0.671875 -17.859375 L 6.09375 -17.859375 Z M 6.09375 0 "/></g></g></g><g fill="#ffffff" fill-opacity="1"><g transform="translate(134.607943, 109.09408)"><g><path d="M 7.078125 -18.328125 C 9.128906 -18.328125 10.707031 -17.800781 11.8125 -16.75 C 12.914062 -15.707031 13.46875 -14.300781 13.46875 -12.53125 L 13.46875 -5.328125 C 13.46875 -3.566406 12.914062 -2.160156 11.8125 -1.109375 C 10.707031 -0.0664062 9.128906 0.453125 7.078125 0.453125 C 5.023438 0.453125 3.441406 -0.0664062 2.328125 -1.109375 C 1.222656 -2.160156 0.671875 -3.566406 0.671875 -5.328125 L 0.671875 -12.53125 C 0.671875 -14.300781 1.222656 -15.707031 2.328125 -16.75 C 3.441406 -17.800781 5.023438 -18.328125 7.078125 -18.328125 Z M 6.09375 -13.90625 L 6.09375 -4.328125 C 6.09375 -4.003906 6.179688 -3.734375 6.359375 -3.515625 C 6.546875 -3.304688 6.785156 -3.203125 7.078125 -3.203125 C 7.359375 -3.203125 7.585938 -3.304688 7.765625 -3.515625 C 7.953125 -3.734375 8.046875 -4.003906 8.046875 -4.328125 L 8.046875 -13.90625 C 8.046875 -14.226562 7.953125 -14.492188 7.765625 -14.703125 C 7.585938 -14.921875 7.359375 -15.03125 7.078125 -15.03125 C 6.722656 -15.03125 6.46875 -14.898438 6.3125 -14.640625 C 6.164062 -14.390625 6.09375 -14.144531 6.09375 -13.90625 Z M 6.09375 -13.90625 "/></g></g></g><g mask="url(#efd847f6cc)"><g transform="matrix(1, 0, 0, 1, 42, 96)"><g clip-path="url(#5c8d9c524c)"><g clip-path="url(#7b8bd23910)"><g clip-path="url(#5f59b742a0)"><path fill="#ffffff" d="M 20.046875 0.183594 L 20.046875 13.390625 L 0.445312 13.390625 L 0.445312 0.183594 Z M 20.046875 0.183594 " fill-opacity="1" fill-rule="nonzero"/></g></g></g></g></g><g mask="url(#bc17370b30)"><g transform="matrix(1, 0, 0, 1, 42, 87)"><g clip-path="url(#31e6c4abef)"><g clip-path="url(#f3705a6a14)"><g clip-path="url(#b9dd088f21)"><path fill="#ffffff" d="M 20.046875 0.691406 L 20.046875 13.898438 L 0.445312 13.898438 L 0.445312 0.691406 Z M 20.046875 0.691406 " fill-opacity="1" fill-rule="nonzero"/></g></g></g></g></g></svg>